<svg width="920" height="680" viewBox="0 0 920 680" fill="none" xmlns="http://www.w3.org/2000/svg">
  <rect width="920" height="680" fill="#09090B"/>
  
  <pattern id="grid" x="0" y="0" width="40" height="40" patternUnits="userSpaceOnUse">
    <path d="M 40 0 L 0 0 0 40" fill="none" stroke="#27272A" stroke-width="0.5" stroke-opacity="0.3"/>
  </pattern>
  <rect width="920" height="680" fill="url(#grid)"/>
  
  <g transform="translate(60, 100)">
    <rect width="160" height="32" rx="16" fill="rgba(34, 197, 94, 0.15)" stroke="#22C55E" stroke-opacity="0.4"/>
    <circle cx="20" cy="16" r="4" fill="#22C55E"/>
    <text x="34" y="21" font-family="-apple-system, BlinkMacSystemFont, sans-serif" font-weight="600" font-size="13" fill="#4ADE80">PRIVACY FIRST</text>
    
    <text x="0" y="100" font-family="-apple-system, BlinkMacSystemFont, sans-serif" font-weight="800" font-size="72" fill="#FFFFFF">JSON Tools</text>
    
    <text x="4" y="150" font-family="-apple-system, BlinkMacSystemFont, sans-serif" font-weight="400" font-size="24" fill="#A1A1AA">Format, Validate, Convert JSON Instantly</text>
    
    <g transform="translate(0, 200)">
      <g>
        <rect width="130" height="40" rx="8" fill="#18181B" stroke="#27272A"/>
        <text x="65" y="26" text-anchor="middle" font-family="-apple-system, BlinkMacSystemFont, sans-serif" font-weight="500" font-size="15" fill="#E4E4E7">Format</text>
      </g>
      <g transform="translate(145, 0)">
        <rect width="130" height="40" rx="8" fill="#18181B" stroke="#27272A"/>
        <text x="65" y="26" text-anchor="middle" font-family="-apple-system, BlinkMacSystemFont, sans-serif" font-weight="500" font-size="15" fill="#E4E4E7">Validate</text>
      </g>
      <g transform="translate(290, 0)">
        <rect width="130" height="40" rx="8" fill="#18181B" stroke="#27272A"/>
        <text x="65" y="26" text-anchor="middle" font-family="-apple-system, BlinkMacSystemFont, sans-serif" font-weight="500" font-size="15" fill="#E4E4E7">TypeScript</text>
      </g>
    </g>
    
    <g transform="translate(0, 260)">
      <g>
        <rect width="130" height="40" rx="8" fill="#18181B" stroke="#27272A"/>
        <text x="65" y="26" text-anchor="middle" font-family="-apple-system, BlinkMacSystemFont, sans-serif" font-weight="500" font-size="15" fill="#E4E4E7">Minify</text>
      </g>
      <g transform="translate(145, 0)">
        <rect width="130" height="40" rx="8" fill="#18181B" stroke="#27272A"/>
        <text x="65" y="26" text-anchor="middle" font-family="-apple-system, BlinkMacSystemFont, sans-serif" font-weight="500" font-size="15" fill="#E4E4E7">YAML</text>
      </g>
      <g transform="translate(290, 0)">
        <rect width="130" height="40" rx="8" fill="#18181B" stroke="#27272A"/>
        <text x="65" y="26" text-anchor="middle" font-family="-apple-system, BlinkMacSystemFont, sans-serif" font-weight="500" font-size="15" fill="#E4E4E7">XML</text>
      </g>
    </g>
  </g>
  
  <g transform="translate(500, 80)">
    <rect x="30" y="-10" width="360" height="320" rx="12" fill="#18181B" fill-opacity="0.5" stroke="#27272A" transform="rotate(3, 200, 150)"/>
    
    <g>
      <rect width="380" height="340" rx="12" fill="#0C0C0E" stroke="#27272A" stroke-width="1.5"/>
      
      <rect width="380" height="40" rx="12" fill="#121214"/>
      <rect y="28" width="380" height="16" fill="#121214"/>
      <line x1="0" y1="40" x2="380" y2="40" stroke="#27272A"/>
      
      <circle cx="20" cy="20" r="5" fill="#EF4444"/>
      <circle cx="40" cy="20" r="5" fill="#F59E0B"/>
      <circle cx="60" cy="20" r="5" fill="#10B981"/>
      
      <text x="190" y="25" text-anchor="middle" font-family="-apple-system, BlinkMacSystemFont, sans-serif" font-size="11" fill="#71717A">data.json</text>
      
      <g transform="translate(24, 70)" font-family="'JetBrains Mono', Consolas, monospace" font-size="18">
        <text x="0" y="0" fill="#E4E4E7">{</text>
        <text x="20" y="36" fill="#3B82F6">"tool"</text>
        <text x="80" y="36" fill="#71717A">:</text>
        <text x="96" y="36" fill="#10B981">"JSON Tools"</text>
        <text x="210" y="36" fill="#71717A">,</text>
        <text x="20" y="72" fill="#3B82F6">"privacy"</text>
        <text x="110" y="72" fill="#71717A">:</text>
        <text x="126" y="72" fill="#F59E0B">true</text>
        <text x="166" y="72" fill="#71717A">,</text>
        <text x="20" y="108" fill="#3B82F6">"server"</text>
        <text x="98" y="108" fill="#71717A">:</text>
        <text x="114" y="108" fill="#EF4444">null</text>
        <text x="154" y="108" fill="#71717A">,</text>
        <text x="20" y="144" fill="#3B82F6">"features"</text>
        <text x="120" y="144" fill="#71717A">:</text>
        <text x="136" y="144" fill="#E4E4E7">[...]</text>
        <text x="0" y="180" fill="#E4E4E7">}</text>
      </g>
    </g>
  </g>
  
  <g transform="translate(60, 580)">
    <text x="0" y="0" font-family="'JetBrains Mono', Consolas, monospace" font-size="18" fill="#3B82F6">json.jobby-time.com</text>
    
    <g transform="translate(280, -15)">
      <rect width="180" height="36" rx="6" fill="rgba(59, 130, 246, 0.1)" stroke="#3B82F6" stroke-opacity="0.3"/>
      <text x="90" y="23" text-anchor="middle" font-family="-apple-system, BlinkMacSystemFont, sans-serif" font-weight="600" font-size="13" fill="#60A5FA">Cmd+Shift+J</text>
    </g>
  </g>
</svg>
