<svg width="440" height="280" viewBox="0 0 440 280" fill="none" xmlns="http://www.w3.org/2000/svg">
  <rect width="440" height="280" fill="#09090B"/>
  
  <pattern id="grid" x="0" y="0" width="30" height="30" patternUnits="userSpaceOnUse">
    <path d="M 30 0 L 0 0 0 30" fill="none" stroke="#27272A" stroke-width="0.5" stroke-opacity="0.3"/>
  </pattern>
  <rect width="440" height="280" fill="url(#grid)"/>
  
  <g transform="translate(30, 50)">
    <rect width="120" height="24" rx="12" fill="rgba(34, 197, 94, 0.15)" stroke="#22C55E" stroke-opacity="0.4"/>
    <circle cx="15" cy="12" r="3" fill="#22C55E"/>
    <text x="26" y="16" font-family="-apple-system, BlinkMacSystemFont, sans-serif" font-weight="600" font-size="10" fill="#4ADE80">PRIVACY FIRST</text>
    
    <text x="0" y="70" font-family="-apple-system, BlinkMacSystemFont, sans-serif" font-weight="800" font-size="42" fill="#FFFFFF">JSON Tools</text>
    
    <text x="2" y="100" font-family="-apple-system, BlinkMacSystemFont, sans-serif" font-weight="400" font-size="14" fill="#A1A1AA">Format, Validate, Convert</text>
    
    <g transform="translate(0, 130)">
      <g>
        <rect width="80" height="28" rx="6" fill="#18181B" stroke="#27272A"/>
        <text x="40" y="19" text-anchor="middle" font-family="-apple-system, BlinkMacSystemFont, sans-serif" font-weight="500" font-size="11" fill="#E4E4E7">Format</text>
      </g>
      <g transform="translate(90, 0)">
        <rect width="80" height="28" rx="6" fill="#18181B" stroke="#27272A"/>
        <text x="40" y="19" text-anchor="middle" font-family="-apple-system, BlinkMacSystemFont, sans-serif" font-weight="500" font-size="11" fill="#E4E4E7">Validate</text>
      </g>
    </g>
  </g>
  
  <g transform="translate(260, 50)">
    <rect width="150" height="180" rx="10" fill="#0C0C0E" stroke="#27272A" stroke-width="1"/>
    
    <rect width="150" height="28" rx="10" fill="#121214"/>
    <rect y="20" width="150" height="10" fill="#121214"/>
    <line x1="0" y1="28" x2="150" y2="28" stroke="#27272A"/>
    
    <circle cx="14" cy="14" r="4" fill="#EF4444"/>
    <circle cx="28" cy="14" r="4" fill="#F59E0B"/>
    <circle cx="42" cy="14" r="4" fill="#10B981"/>
    
    <g transform="translate(14, 44)" font-family="'JetBrains Mono', Consolas, monospace" font-size="11">
      <text x="0" y="0" fill="#E4E4E7">{</text>
      <text x="10" y="20" fill="#3B82F6">"tool"</text>
      <text x="45" y="20" fill="#71717A">:</text>
      <text x="52" y="20" fill="#10B981">"JSON"</text>
      <text x="10" y="40" fill="#3B82F6">"privacy"</text>
      <text x="65" y="40" fill="#71717A">:</text>
      <text x="72" y="40" fill="#F59E0B">true</text>
      <text x="10" y="60" fill="#3B82F6">"server"</text>
      <text x="55" y="60" fill="#71717A">:</text>
      <text x="62" y="60" fill="#EF4444">null</text>
      <text x="0" y="80" fill="#E4E4E7">}</text>
    </g>
  </g>
</svg>
